<svg height="512pt" viewBox="0 0 512 512.001" width="512pt" xmlns="http://www.w3.org/2000/svg"><path d="m162.011719 464.894531 66.496093-85.230469h-.007812c17.269531-21.1875 27.625-48.226562 27.625-77.691406 0-57.992187-40.113281-106.605468-94.109375-119.628906-53.992187 13.023438-94.105469 61.636719-94.105469 119.628906 0 29.757813 10.5625 57.050782 28.144532 78.332032h-.070313zm0 0" fill="#72d8ff"/><path d="m205.0625 303.9375c0 39.765625-32.234375 72-72 72-39.761719 0-72-32.234375-72-72s32.238281-72 72-72c39.765625 0 72 32.234375 72 72zm0 0" fill="#fff"/><path d="m437.214844 218.753906 43.1875-55.332031h-.054688c13.394532-16.210937 21.441406-37.003906 21.441406-59.671875 0-41.59375-27.089843-76.851562-64.582031-89.117188-37.496093 12.265626-64.582031 47.523438-64.582031 89.117188 0 22.445312 7.890625 43.042969 21.046875 59.183594h-.007813zm0 0" fill="#ff5d5d"/><path d="m448.039062 103.75c0 22.089844-17.90625 40-40 40-22.089843 0-40-17.910156-40-40 0-22.09375 17.910157-40 40-40 22.09375 0 40 17.90625 40 40zm0 0" fill="#fff"/><path d="m133.0625 168.910156c-73.371094 0-133.0625 59.691406-133.0625 133.0625 0 30.480469 10.542969 60.199219 29.710938 83.816406.148437.226563.308593.449219.480468.667969l12.785156 16.382813c3.402344 4.355468 9.683594 5.128906 14.039063 1.730468 4.351563-3.398437 5.125-9.683593 1.726563-14.039062l-12.105469-15.507812c-.234375-.375-.496094-.742188-.78125-1.089844-16.671875-20.179688-25.855469-45.734375-25.855469-71.960938 0-62.339844 50.71875-113.0625 113.0625-113.0625s113.0625 50.722656 113.0625 113.0625c0 25.949219-9.011719 51.292969-25.375 71.375-.125.148438-.242188.300782-.351562.457032l-87.339844 111.941406-27.777344-35.589844c-3.398438-4.351562-9.683594-5.128906-14.035156-1.730469-4.355469 3.398438-5.128906 9.683594-1.730469 14.039063l35.664063 45.6875c1.894531 2.429687 4.804687 3.851562 7.882812 3.847656 3.082031 0 5.988281-1.417969 7.882812-3.847656l95.445313-122.335938c.035156-.042968.066406-.085937.097656-.128906 19.113281-23.589844 29.636719-53.304688 29.636719-83.714844.003906-73.371094-59.691406-133.0625-133.0625-133.0625zm0 0"/><path d="m81.929688 434.5c1.859374-1.859375 2.929687-4.441406 2.929687-7.070312 0-2.628907-1.070313-5.210938-2.929687-7.070313-1.859376-1.859375-4.4375-2.929687-7.070313-2.929687-2.628906 0-5.207031 1.070312-7.070313 2.929687-1.859374 1.859375-2.929687 4.441406-2.929687 7.070313 0 2.628906 1.070313 5.210937 2.929687 7.070312 1.863282 1.859375 4.441407 2.929688 7.070313 2.929688 2.632813 0 5.210937-1.070313 7.070313-2.929688zm0 0"/><path d="m133.0625 385.9375c45.214844 0 82-36.785156 82-82s-36.785156-82-82-82-82 36.785156-82 82 36.785156 82 82 82zm0-144c34.1875 0 62 27.8125 62 62s-27.8125 62-62 62-62-27.8125-62-62 27.8125-62 62-62zm0 0"/><path d="m408.039062 0c-57.207031 0-103.746093 46.542969-103.746093 103.75 0 23.695312 8.195312 46.851562 23.082031 65.238281.023438.03125.046875.0625.070312.09375l72.710938 93.195313c1.894531 2.429687 4.800781 3.847656 7.882812 3.851562 3.082032 0 5.988282-1.421875 7.882813-3.847656l72.363281-92.707031c.140625-.183594.277344-.367188.40625-.558594 14.898438-18.398437 23.097656-41.535156 23.097656-65.265625 0-57.207031-46.542968-103.75-103.75-103.75zm64.601563 157.050781c-.257813.308594-.492187.632813-.707031.964844l-63.890625 81.855469-64.628907-82.835938c-.105468-.144531-.214843-.28125-.324218-.421875-12.125-14.871093-18.796875-33.644531-18.796875-52.863281 0-46.179688 37.566406-83.75 83.746093-83.75 46.179688 0 83.75 37.570312 83.75 83.75 0 19.425781-6.800781 38.355469-19.148437 53.300781zm0 0"/><path d="m324.449219 268.160156c-4.335938-3.417968-10.625-2.675781-14.046875 1.660156-2.949219 3.742188-5.46875 7.816407-7.492188 12.117188-2.347656 5-.203125 10.957031 4.796875 13.304688 1.375.648437 2.824219.953124 4.246094.953124 3.757813 0 7.355469-2.125 9.058594-5.746093 1.375-2.925781 3.089843-5.695313 5.097656-8.242188 3.417969-4.335937 2.675781-10.625-1.660156-14.046875zm0 0"/><path d="m233.050781 492h-12c-5.523437 0-10 4.476562-10 10s4.476563 10 10 10h12c5.523438 0 10-4.476562 10-10s-4.476562-10-10-10zm0 0"/><path d="m177.050781 492h-7.050781c-5.523438 0-10 4.476562-10 10s4.476562 10 10 10h7.050781c5.523438 0 10-4.476562 10-10s-4.476562-10-10-10zm0 0"/><path d="m307 319.457031c-5.523438 0-10 4.476563-10 10v12c0 5.523438 4.476562 10 10 10s10-4.476562 10-10v-12c0-5.523437-4.476562-10-10-10zm0 0"/><path d="m368.039062 246h-8.539062c-1.371094 0-2.75.046875-4.109375.132812-5.511719.359376-9.6875 5.121094-9.324219 10.632813.34375 5.289063 4.742188 9.347656 9.96875 9.347656.21875 0 .4375-.007812.660156-.023437.925782-.058594 1.867188-.089844 2.804688-.089844h8.539062c5.523438 0 10-4.476562 10-10s-4.476562-10-10-10zm0 0"/><path d="m280.476562 483.140625c-2.5625 1.984375-5.351562 3.671875-8.285156 5.015625-5.019531 2.300781-7.222656 8.238281-4.921875 13.257812 1.683594 3.671876 5.304688 5.835938 9.097657 5.835938 1.390624 0 2.808593-.292969 4.160156-.910156 4.316406-1.980469 8.417968-4.464844 12.1875-7.378906 4.367187-3.382813 5.167968-9.660157 1.789062-14.03125-3.378906-4.367188-9.660156-5.167969-14.027344-1.789063zm0 0"/><path d="m307 431.457031c-5.523438 0-10 4.476563-10 10v8.042969c0 1.070312-.039062 2.148438-.117188 3.210938-.410156 5.507812 3.726563 10.304687 9.230469 10.710937.253907.019531.503907.027344.75.027344 5.1875 0 9.574219-4.003907 9.964844-9.261719.113281-1.550781.171875-3.128906.171875-4.6875v-8.042969c0-5.523437-4.476562-10-10-10zm0 0"/><path d="m307 375.457031c-5.523438 0-10 4.476563-10 10v12c0 5.523438 4.476562 10 10 10s10-4.476562 10-10v-12c0-5.523437-4.476562-10-10-10zm0 0"/><path d="m408.039062 53.75c-27.570312 0-50 22.429688-50 50s22.429688 50 50 50c27.570313 0 50-22.429688 50-50s-22.429687-50-50-50zm0 80c-16.539062 0-30-13.460938-30-30 0-16.542969 13.460938-30 30-30 16.542969 0 30 13.457031 30 30 0 16.539062-13.457031 30-30 30zm0 0"/><path d="m460.121094 246h-12c-5.523438 0-10 4.476562-10 10s4.476562 10 10 10h12c5.519531 0 10-4.476562 10-10s-4.480469-10-10-10zm0 0"/><path d="m96.25 491.78125h-12c-5.523438 0-10 4.476562-10 10s4.476562 10 10 10h12c5.523438 0 10-4.476562 10-10s-4.476562-10-10-10zm0 0"/></svg>