<svg height="511pt" viewBox="1 1 511 512" width="511pt" xmlns="http://www.w3.org/2000/svg"><path d="M348.5 154.027V150.5c0-11.047 8.953-20 20-20s20 8.953 20 20v36zm79.844 65.805v-3.824c0-11.043 8.953-20 20-20s20 8.957 20 20v36zM164.5 154.027V150.5c0-11.047-8.953-20-20-20s-20 8.953-20 20v36zm-79.844 65.805v-3.824c0-11.043-8.953-20-20-20s-20 8.957-20 20v36zm0 0" fill="#c9f3ff"/><path d="M52.5 329.477l152-47.793V170.28l-152 125.531zm450 13.207v-23.977l-120.637-97.922c-12.234-9.933-30.52-1.226-30.52 14.535v59.836zM158.781 485.52l60.09-29.786 3.191-.007a165.53 165.53 0 0 1-14.37-41.97l-48.91 49.06zm184.266-22.567l44.422 21.434v-21.57l-46.211-46.348a165.396 165.396 0 0 1-7.098 23.965c-3.308 8.695.508 18.472 8.887 22.52zm0 0" fill="#72d8ff"/><path d="M308.5 381.55V111.02c0-29.567-10.543-57.782-29.156-79.907a124.116 124.116 0 0 0-29.156 79.907v270.53c0 .688.019 1.376.027 2.063a165.48 165.48 0 0 0 17.535 72.11 165.733 165.733 0 0 0 11.594 19.613 165.365 165.365 0 0 0 11.719-19.856 165.462 165.462 0 0 0 17.41-71.867c.007-.691.027-1.375.027-2.062zm0 0" fill="#c9f3ff"/><path d="M508.867 274.102l-30.523-25.211v-32.883c0-16.54-13.457-30-30-30-11.543 0-21.582 6.562-26.594 16.144l-23.25-19.199V150.5c0-16.543-13.457-30-30-30-11.426 0-21.375 6.422-26.441 15.844L318.5 116.887v-5.867c0-43.23-21.004-84.04-56.188-109.16a10.01 10.01 0 0 0-11.625 0C215.505 26.98 194.5 67.79 194.5 111.02v5.867l-23.559 19.457c-5.066-9.422-15.015-15.844-26.441-15.844-16.543 0-30 13.457-30 30v32.453l-23.25 19.203c-5.012-9.586-15.05-16.144-26.594-16.144-16.543 0-30 13.457-30 30v32.883L4.133 274.102a9.996 9.996 0 0 0-3.633 7.71v60.872a10 10 0 0 0 10 10c1.004 0 2.016-.153 3-.461l57.71-18.145c5.27-1.656 8.196-7.27 6.54-12.539-1.656-5.27-7.273-8.2-12.54-6.539L20.5 329.059v-42.536l174-143.699v131.524l-56.066 17.629c-5.27 1.656-8.196 7.27-6.54 12.539 1.344 4.27 5.286 7 9.536 7 .996 0 2.004-.149 3.004-.461l50.066-15.743v84.165l-76.05 76.277a9.993 9.993 0 0 0-2.919 7.062V502a10.005 10.005 0 0 0 10 10 9.99 9.99 0 0 0 4.442-1.04l87.214-43.23c8.606 15.293 19.508 29.348 32.454 41.547A9.964 9.964 0 0 0 256.5 512c2.465 0 4.93-.906 6.855-2.723 12.95-12.199 23.848-26.254 32.458-41.547l87.214 43.23a9.986 9.986 0 0 0 4.442 1.04 9.969 9.969 0 0 0 5.27-1.504 9.995 9.995 0 0 0 4.73-8.496v-39.184a10.01 10.01 0 0 0-2.918-7.062L318.5 379.477v-84.165l181 56.91a9.99 9.99 0 0 0 8.914-1.476 9.994 9.994 0 0 0 4.086-8.062v-60.872a9.996 9.996 0 0 0-3.633-7.71zM134.5 150.5c0-5.516 4.484-10 10-10 5.328 0 9.68 4.188 9.973 9.445L134.5 166.438zm-79.844 65.512c0-5.516 4.485-10 10-10 5.465 0 9.914 4.406 9.992 9.851l-19.992 16.512zm393.688-10c5.515 0 10 4.484 10 10v16.363l-19.992-16.512c.078-5.445 4.527-9.851 9.992-9.851zM368.5 140.5c5.516 0 10 4.484 10 10v15.938l-19.973-16.493c.293-5.257 4.645-9.445 9.973-9.445zM135.531 485.883v-18.934l60.719-60.902a176.262 176.262 0 0 0 12.133 43.726zm130.969-9.89V379c0-5.523-4.477-10-10-10s-10 4.477-10 10v96.992c-20.547-26.937-32-60.234-32-94.441V111.02c0-34.336 15.578-66.88 42-88.446 26.422 21.567 42 54.11 42 88.446v270.53c0 34.207-11.457 67.504-32 94.441zm110.969 9.89l-72.852-36.11a176.168 176.168 0 0 0 12.133-43.726l60.719 60.902zM492.5 329.059l-174-54.711V142.824l174 143.7zm0 0"/><path d="M114.57 305.11c-1.86-1.86-4.441-2.93-7.07-2.93s-5.21 1.07-7.07 2.93a10.08 10.08 0 0 0-2.93 7.07c0 2.64 1.07 5.21 2.93 7.07 1.86 1.871 4.441 2.93 7.07 2.93s5.21-1.059 7.07-2.93c1.86-1.86 2.93-4.43 2.93-7.07 0-2.63-1.07-5.211-2.93-7.07zm141.93 27.57a10.08 10.08 0 0 0-7.07 2.93 10.08 10.08 0 0 0-2.93 7.07c0 2.64 1.07 5.218 2.93 7.07 1.86 1.871 4.441 2.941 7.07 2.941s5.21-1.07 7.07-2.941c1.86-1.86 2.93-4.43 2.93-7.07a10.1 10.1 0 0 0-2.93-7.07 10.08 10.08 0 0 0-7.07-2.93zm0 0"/></svg>