<svg xmlns="http://www.w3.org/2000/svg" viewBox="0 0 511.999 511.999"><circle cx="437.326" cy="74.658" r="64.609" fill="#6e87f5"/><path d="M483.336 115.568c0-9.676-6.897-17.979-16.409-19.753l-11.704-2.183-35.849.008-11.66 2.175c-9.512 1.774-16.409 10.076-16.409 19.753v4.431c11.718 11.891 28.003 19.27 46.017 19.27 18.012 0 34.295-7.377 46.013-19.265l.001-4.436z" fill="#ff8c8c"/><path d="M438.888 44.095h-3.136c-11.236 0-20.344 9.108-20.344 20.344v17.395c0 11.236 9.108 20.344 20.344 20.344h3.136c11.236 0 20.344-9.108 20.344-20.344V64.438c.001-11.235-9.108-20.343-20.344-20.343z" fill="#ffcdac"/><circle cx="74.637" cy="74.658" r="64.609" fill="#6e87f5"/><path d="M120.646 115.568c0-9.676-6.897-17.979-16.409-19.753l-11.704-2.183-35.849.008-11.659 2.174c-9.512 1.774-16.409 10.076-16.409 19.753v4.431c11.718 11.891 28.003 19.27 46.017 19.27 18.012 0 34.295-7.377 46.013-19.265v-4.435z" fill="#9bbeff"/><path d="M76.198 44.095h-3.136c-11.236 0-20.344 9.108-20.344 20.344v17.395c0 11.236 9.108 20.344 20.344 20.344h3.136c11.236 0 20.344-9.108 20.344-20.344V64.438c.001-11.235-9.107-20.343-20.344-20.343z" fill="#ffcdac"/><circle cx="74.637" cy="437.348" r="64.609" fill="#6e87f5"/><path d="M120.648 478.258c0-9.676-6.897-17.979-16.409-19.753l-11.704-2.183-35.849.008-11.66 2.175c-9.512 1.774-16.409 10.076-16.409 19.753v4.431c11.718 11.891 28.003 19.27 46.017 19.27 18.012 0 34.295-7.377 46.013-19.265l.001-4.436z" fill="#a5dc69"/><path d="M76.2 406.785h-3.136c-11.236 0-20.344 9.108-20.344 20.344v17.395c0 11.236 9.108 20.344 20.344 20.344H76.2c11.236 0 20.344-9.108 20.344-20.344v-17.395c.001-11.236-9.107-20.344-20.344-20.344z" fill="#ffcdac"/><circle cx="437.326" cy="437.348" r="64.609" fill="#6e87f5"/><path d="M483.336 478.258c0-9.676-6.897-17.979-16.409-19.753l-11.704-2.183-35.849.008-11.66 2.175c-9.512 1.774-16.409 10.076-16.409 19.753v4.431c11.718 11.891 28.003 19.27 46.017 19.27 18.012 0 34.295-7.377 46.013-19.265l.001-4.436z" fill="#f5c86e"/><path d="M438.888 406.785h-3.136c-11.236 0-20.344 9.108-20.344 20.344v17.395c0 11.236 9.108 20.344 20.344 20.344h3.136c11.236 0 20.344-9.108 20.344-20.344v-17.395c.001-11.236-9.108-20.344-20.344-20.344z" fill="#ffcdac"/><circle cx="255.977" cy="255.998" r="151.975" fill="#78d2fa"/><path d="M348.027 160.401c-18.666 0-33.797 15.131-33.797 33.797 0 6.933-5.62 12.553-12.553 12.553-12.266 0-22.209 9.943-22.209 22.21v4.828c0 12.266 9.943 22.209 22.209 22.209h106.276c0-36.227-12.683-69.486-33.84-95.599l-26.086.002zM104.003 256c0 1.674.037 3.338.091 4.999h51.598c8.451 0 15.302-6.851 15.302-15.302 0-8.452 6.851-15.302 15.302-15.302h28.212c6.688 0 12.109-5.421 12.109-12.109s-5.421-12.109-12.109-12.109h-9.018c-7.715 0-13.969-6.254-13.969-13.969s6.254-13.969 13.969-13.969h28.752c9.484 0 17.173-7.689 17.173-17.173 0-9.484-7.689-17.173-17.173-17.173h-80.866c-30.342 27.785-49.373 67.722-49.373 112.107z" fill="#a5dc69"/><path d="M262.275 315.958h-.418a2.802 2.802 0 0 1-2.802-2.802c0-6.189-5.017-11.206-11.206-11.206H111.082c13.337 42.092 44.504 76.245 84.637 93.598v-7.561c0-7.954 6.448-14.402 14.402-14.402h21.926c7.954 0 14.402-6.448 14.402-14.402a8.843 8.843 0 0 1 8.843-8.842h6.985c9.494 0 17.191-7.696 17.191-17.19v-.002c-.001-9.495-7.698-17.191-17.193-17.191z" fill="#f5c86e"/><path d="M255.978 94.027c-89.312 0-161.973 72.661-161.973 161.973s72.661 161.973 161.973 161.973S417.951 345.312 417.951 256 345.29 94.027 255.978 94.027zm113.191 76.372c16.166 21.324 26.452 47.334 28.428 75.602h-95.921c-6.733 0-12.211-5.478-12.211-12.211v-4.828c0-6.733 5.478-12.211 12.211-12.211 12.435 0 22.552-10.117 22.552-22.552 0-13.123 10.676-23.799 23.799-23.799h21.141v-.001zm-211.72-16.518c.071.001.14.011.212.011h76.582c3.956 0 7.175 3.218 7.175 7.175s-3.218 7.175-7.175 7.175h-28.752c-13.216 0-23.967 10.751-23.967 23.967s10.751 23.968 23.967 23.968h9.018c1.164 0 2.111.947 2.111 2.111a2.113 2.113 0 0 1-2.111 2.111h-28.212c-13.951 0-25.301 11.35-25.301 25.301a5.31 5.31 0 0 1-5.304 5.304h-41.593c1.324-38.066 17.699-72.366 43.35-97.123zm98.529 244.095c-17.689 0-34.629-3.261-50.262-9.198v-.79a4.408 4.408 0 0 1 4.404-4.403h21.926c13.067 0 23.768-10.324 24.373-23.244h5.855c14.991 0 27.188-12.197 27.189-27.189 0-7.263-2.828-14.092-7.964-19.227-3.757-3.757-8.421-6.28-13.498-7.363-2.78-8.474-10.764-14.61-20.155-14.61H163.99c-5.522 0-9.998 4.476-9.998 9.998s4.476 9.998 9.998 9.998h83.856c.667 0 1.208.542 1.208 1.208 0 7.058 5.742 12.8 12.8 12.8h.418c1.922 0 3.728.749 5.086 2.107a7.148 7.148 0 0 1 2.107 5.088c0 3.965-3.227 7.192-7.193 7.192h-6.984c-10.388 0-18.84 8.452-18.841 18.84a4.408 4.408 0 0 1-4.403 4.403h-21.926c-10.686 0-19.784 6.908-23.077 16.491-39.392-21.972-67.3-62.152-72.249-109.081h40.898c13.951 0 25.301-11.35 25.301-25.301a5.31 5.31 0 0 1 5.304-5.304h28.212c12.19 0 22.107-9.917 22.107-22.107s-9.917-22.107-22.107-22.107h-9.018a3.975 3.975 0 0 1-3.97-3.971c0-2.19 1.781-3.97 3.97-3.97h28.752c14.983 0 27.171-12.189 27.171-27.171s-12.189-27.171-27.171-27.171h-50.626c21.203-12.614 45.948-19.872 72.36-19.872 36.401 0 69.64 13.775 94.795 36.379h-2.746c-24.149 0-43.796 19.647-43.796 43.796a2.559 2.559 0 0 1-2.556 2.556c-17.76 0-32.208 14.449-32.208 32.208v4.828c0 17.76 14.449 32.208 32.208 32.208h95.921c-5.144 73.639-66.692 131.979-141.615 131.979z"/><path d="M179.792 32.618c62.239-21.172 130.295-15.494 187.835 15.439a74.23 74.23 0 0 0-4.917 26.597c0 41.141 33.471 74.613 74.613 74.613s74.613-33.471 74.613-74.613S478.464.042 437.322.042c-24.634 0-46.508 12.007-60.104 30.468-62.447-33.616-136.32-39.802-203.866-16.823-5.228 1.779-8.024 7.458-6.246 12.686 1.778 5.226 7.457 8.02 12.686 6.245zm221.511 83.04v-.09c0-4.859 3.467-9.034 8.245-9.924l6.362-1.187c5.446 4.799 12.586 7.719 20.399 7.719h2.025c7.813 0 14.952-2.921 20.399-7.719l6.362 1.187a10.099 10.099 0 0 1 8.245 9.924v.094c-9.622 8.461-22.225 13.609-36.015 13.609-13.794 0-26.399-5.149-36.022-13.613zm47.931-34.379c0 6.011-4.89 10.901-10.901 10.901h-2.025c-6.011 0-10.901-4.89-10.901-10.901V64.994c0-6.011 4.89-10.901 10.901-10.901h2.025c6.011 0 10.901 4.89 10.901 10.901v16.285zm-11.912-61.24c30.115 0 54.616 24.501 54.616 54.616a54.287 54.287 0 0 1-4.882 22.527 30.039 30.039 0 0 0-18.187-11.173c.238-1.543.362-3.121.362-4.73V64.994c0-17.037-13.861-30.898-30.898-30.898h-2.025c-17.037 0-30.898 13.861-30.898 30.898v16.284c0 1.608.124 3.187.362 4.73a30.037 30.037 0 0 0-18.185 11.17 54.276 54.276 0 0 1-4.881-22.524c.001-30.114 24.501-54.615 54.616-54.615zm-99.974 457.51c-63.693 23.345-133.628 18.336-192.988-13.588a74.233 74.233 0 0 0 4.925-26.618c0-41.141-33.471-74.613-74.613-74.613S.06 396.202.06 437.345s33.471 74.613 74.613 74.613c24.628 0 46.498-12.001 60.094-30.454 30.686 16.482 65.069 26.68 99.912 29.572 6.99.581 14.007.869 21.036.869 30.139 0 60.376-5.305 88.515-15.618 5.185-1.9 7.848-7.644 5.947-12.829-1.901-5.186-7.645-7.848-12.829-5.949zm-262.675-94.82c30.115 0 54.616 24.501 54.616 54.616a54.276 54.276 0 0 1-4.881 22.524 30.042 30.042 0 0 0-18.185-11.17c.238-1.543.362-3.122.362-4.73v-16.284c0-17.037-13.861-30.898-30.898-30.898h-2.025c-17.037 0-30.898 13.861-30.898 30.898v16.284c0 1.608.124 3.187.362 4.73a30.039 30.039 0 0 0-18.187 11.173 54.278 54.278 0 0 1-4.882-22.527c0-30.115 24.501-54.616 54.616-54.616zm-11.911 61.239v-16.284c0-6.011 4.89-10.901 10.901-10.901h2.025c6.011 0 10.901 4.89 10.901 10.901v16.284c0 6.011-4.89 10.901-10.901 10.901h-2.025c-6.011.001-10.901-4.89-10.901-10.901zm-24.104 34.384v-.094c0-4.859 3.467-9.033 8.245-9.924l6.362-1.187c5.446 4.799 12.586 7.719 20.399 7.719h2.025c7.813 0 14.952-2.921 20.399-7.719l6.362 1.187a10.099 10.099 0 0 1 8.245 9.924v.09c-9.622 8.464-22.227 13.613-36.019 13.613-13.793-.001-26.396-5.149-36.018-13.609zm444.457-317.428c-5.178 1.918-7.821 7.67-5.903 12.849l.118.317a10.002 10.002 0 0 0 9.376 6.529 9.97 9.97 0 0 0 3.471-.625c5.178-1.918 7.822-7.67 5.903-12.849l-.118-.317c-1.917-5.18-7.671-7.822-12.847-5.904zM21.158 329.95c-5.188 1.852-7.88 7.613-6.046 12.808a10.004 10.004 0 0 0 9.428 6.674 9.984 9.984 0 0 0 3.327-.573c5.207-1.838 7.939-7.549 6.101-12.756l-.059-.164-9.414 3.366 9.406-3.39c-1.869-5.183-7.556-7.813-12.743-5.965zM3.945 300.773c.857 4.849 5.074 8.26 9.833 8.26.578 0 1.164-.05 1.752-.154 5.437-.961 9.066-6.148 8.105-11.586-9.262-52.392-.587-106.42 24.406-152.94a74.217 74.217 0 0 0 26.59 4.915c41.141 0 74.613-33.471 74.613-74.613S115.774.042 74.633.042.02 33.513.02 74.655c0 24.637 12.01 46.514 30.475 60.109C3.33 185.259-6.107 243.911 3.945 300.773zm34.673-185.111v-.094c0-4.859 3.467-9.033 8.245-9.924l6.362-1.187c5.446 4.799 12.586 7.719 20.399 7.719h2.025c7.813 0 14.952-2.921 20.399-7.719l6.362 1.187a10.099 10.099 0 0 1 8.245 9.924v.09c-9.622 8.464-22.227 13.613-36.019 13.613-13.793 0-26.396-5.148-36.018-13.609zm47.931-34.383c0 6.011-4.89 10.901-10.901 10.901h-2.025c-6.011 0-10.901-4.89-10.901-10.901V64.994c0-6.011 4.89-10.901 10.901-10.901h2.025c6.011 0 10.901 4.89 10.901 10.901v16.285zm-11.916-61.24c30.115 0 54.616 24.501 54.616 54.616a54.276 54.276 0 0 1-4.881 22.524 30.042 30.042 0 0 0-18.185-11.17c.238-1.543.362-3.122.362-4.73V64.994c0-17.037-13.861-30.898-30.898-30.898h-2.025c-17.037 0-30.898 13.861-30.898 30.898v16.284c0 1.608.124 3.187.362 4.73a30.039 30.039 0 0 0-18.187 11.173 54.278 54.278 0 0 1-4.882-22.527c0-30.114 24.501-54.615 54.616-54.615zm406.824 357.207c28.671-53.247 37.53-114.928 24.899-174.536-1.145-5.401-6.449-8.853-11.853-7.709-5.402 1.145-8.854 6.452-7.709 11.853 11.639 54.929 3.494 111.755-22.89 160.814a74.22 74.22 0 0 0-26.538-4.894c-41.141 0-74.613 33.471-74.613 74.613S396.224 512 437.366 512s74.613-33.471 74.613-74.613c-.001-24.657-12.031-46.549-30.522-60.141zm-44.092 5.526c30.115 0 54.616 24.501 54.616 54.616a54.29 54.29 0 0 1-4.882 22.527 30.043 30.043 0 0 0-18.187-11.173c.238-1.543.362-3.122.362-4.73v-16.284c0-17.037-13.861-30.898-30.898-30.898h-2.025c-17.037 0-30.898 13.861-30.898 30.898v16.284c0 1.608.124 3.187.362 4.73a30.042 30.042 0 0 0-18.185 11.17 54.28 54.28 0 0 1-4.881-22.524c.001-30.115 24.501-54.616 54.616-54.616zm-11.916 61.239v-16.284c0-6.011 4.89-10.901 10.901-10.901h2.025c6.011 0 10.901 4.89 10.901 10.901v16.284c0 6.011-4.89 10.901-10.901 10.901h-2.025c-6.009.001-10.901-4.89-10.901-10.901zm-24.103 34.38v-.091c0-4.859 3.467-9.034 8.245-9.924l6.362-1.187c5.446 4.799 12.586 7.719 20.399 7.719h2.025c7.813 0 14.952-2.921 20.399-7.719l6.362 1.187a10.099 10.099 0 0 1 8.245 9.924v.094c-9.622 8.462-22.225 13.609-36.015 13.609-13.794 0-26.399-5.149-36.022-13.612z"/></svg>