<svg height="512pt" viewBox="0 0 512 512.001" width="512pt" xmlns="http://www.w3.org/2000/svg"><path d="M162.012 464.895l66.496-85.23h-.008c17.27-21.188 27.625-48.228 27.625-77.692 0-57.993-40.113-106.606-94.11-119.63-53.992 13.024-94.105 61.637-94.105 119.63 0 29.757 10.563 57.05 28.145 78.332h-.07zm0 0" fill="#72d8ff"/><path d="M205.063 303.938c0 39.765-32.235 72-72 72-39.762 0-72-32.235-72-72s32.238-72 72-72c39.765 0 72 32.234 72 72zm0 0" fill="#fff"/><path d="M437.215 218.754l43.187-55.332h-.054c13.394-16.211 21.441-37.004 21.441-59.672 0-41.594-27.09-76.852-64.582-89.117-37.496 12.265-64.582 47.523-64.582 89.117 0 22.445 7.89 43.043 21.047 59.184h-.008zm0 0" fill="#ff5d5d"/><path d="M448.04 103.75c0 22.09-17.907 40-40 40-22.09 0-40-17.91-40-40 0-22.094 17.91-40 40-40 22.093 0 40 17.906 40 40zm0 0" fill="#fff"/><path d="M133.063 168.91C59.69 168.91 0 228.602 0 301.973c0 30.48 10.543 60.199 29.71 83.816.15.227.31.45.481.668l12.786 16.383c3.402 4.355 9.683 5.129 14.039 1.73 4.351-3.398 5.125-9.683 1.726-14.039l-12.105-15.508a10.488 10.488 0 0 0-.782-1.09C29.184 353.754 20 328.2 20 301.974c0-62.34 50.719-113.063 113.063-113.063s113.062 50.723 113.062 113.063c0 25.949-9.012 51.293-25.375 71.375-.125.148-.242.3-.352.457l-87.34 111.941-27.777-35.59c-3.398-4.351-9.683-5.129-14.035-1.73-4.355 3.398-5.129 9.683-1.73 14.039l35.664 45.687a9.985 9.985 0 0 0 7.882 3.848 9.99 9.99 0 0 0 7.883-3.848l95.446-122.336a2.8 2.8 0 0 0 .097-.128c19.114-23.59 29.637-53.305 29.637-83.715.004-73.371-59.691-133.063-133.063-133.063zm0 0"/><path d="M81.93 434.5a10.08 10.08 0 0 0 2.93-7.07c0-2.63-1.07-5.211-2.93-7.07a10.073 10.073 0 0 0-7.07-2.93 10.08 10.08 0 0 0-7.07 2.93 10.08 10.08 0 0 0-2.93 7.07c0 2.629 1.07 5.21 2.93 7.07a10.087 10.087 0 0 0 7.07 2.93c2.632 0 5.21-1.07 7.07-2.93zm51.133-48.562c45.214 0 82-36.786 82-82s-36.786-82-82-82-82 36.785-82 82 36.785 82 82 82zm0-144c34.187 0 62 27.812 62 62s-27.813 62-62 62-62-27.813-62-62 27.812-62 62-62zM408.04 0c-57.208 0-103.747 46.543-103.747 103.75 0 23.695 8.195 46.852 23.082 65.238l.07.094 72.711 93.195a10.006 10.006 0 0 0 7.883 3.852c3.082 0 5.988-1.422 7.883-3.848l72.363-92.707c.14-.183.278-.367.406-.558 14.899-18.399 23.098-41.536 23.098-65.266C511.79 46.543 465.246 0 408.04 0zm64.6 157.05a9.84 9.84 0 0 0-.706.966l-63.891 81.855-64.629-82.836c-.105-.144-.215-.281-.324-.422-12.125-14.87-18.797-33.644-18.797-52.863 0-46.18 37.566-83.75 83.746-83.75 46.18 0 83.75 37.57 83.75 83.75 0 19.426-6.8 38.355-19.148 53.3zM324.45 268.16c-4.337-3.418-10.626-2.676-14.048 1.66a62.776 62.776 0 0 0-7.492 12.117c-2.347 5-.203 10.958 4.797 13.305a9.936 9.936 0 0 0 4.246.953c3.758 0 7.356-2.125 9.059-5.746a42.588 42.588 0 0 1 5.097-8.242c3.418-4.336 2.676-10.625-1.66-14.047zM233.05 492h-12c-5.523 0-10 4.477-10 10s4.477 10 10 10h12c5.524 0 10-4.477 10-10s-4.476-10-10-10zm-56 0H170c-5.523 0-10 4.477-10 10s4.477 10 10 10h7.05c5.524 0 10-4.477 10-10s-4.476-10-10-10zM307 319.457c-5.523 0-10 4.477-10 10v12c0 5.523 4.477 10 10 10s10-4.477 10-10v-12c0-5.523-4.477-10-10-10zM368.04 246h-8.54c-1.371 0-2.75.047-4.11.133-5.511.36-9.687 5.12-9.324 10.633.344 5.289 4.743 9.347 9.97 9.347a9.4 9.4 0 0 0 .66-.023c.925-.059 1.866-.09 2.804-.09h8.54c5.522 0 10-4.477 10-10s-4.478-10-10-10zm-87.563 237.14a42.38 42.38 0 0 1-8.286 5.016c-5.02 2.301-7.222 8.239-4.921 13.258a9.998 9.998 0 0 0 13.257 4.926 62.744 62.744 0 0 0 12.188-7.38 10.005 10.005 0 0 0 1.789-14.03c-3.379-4.367-9.66-5.168-14.027-1.79zM307 431.457c-5.523 0-10 4.477-10 10v8.043c0 1.07-.04 2.148-.117 3.21-.41 5.509 3.726 10.306 9.23 10.712.254.02.504.027.75.027 5.188 0 9.575-4.004 9.965-9.261.113-1.551.172-3.13.172-4.688v-8.043c0-5.523-4.477-10-10-10zm0-56c-5.523 0-10 4.477-10 10v12c0 5.523 4.477 10 10 10s10-4.477 10-10v-12c0-5.523-4.477-10-10-10zm0 0"/><path d="M408.04 53.75c-27.571 0-50 22.43-50 50s22.429 50 50 50c27.57 0 50-22.43 50-50s-22.43-50-50-50zm0 80c-16.54 0-30-13.46-30-30 0-16.543 13.46-30 30-30 16.542 0 30 13.457 30 30 0 16.54-13.458 30-30 30zM460.121 246h-12c-5.523 0-10 4.477-10 10s4.477 10 10 10h12c5.52 0 10-4.477 10-10s-4.48-10-10-10zM96.25 491.781h-12c-5.523 0-10 4.477-10 10s4.477 10 10 10h12c5.523 0 10-4.476 10-10s-4.477-10-10-10zm0 0"/></svg>